# xmcd CD database file
#
# Track frame offsets:
#	225
#	17045
#	26344
#	43471
#	61876
#	71906
#	83895
#	96532
#	111352
#	124852
#	135369
#	148817
#	156679
#	170737
#	181089
#	195832
#	209744
#	220287
#	237769
#	251541
#
# Disc length: 3523 seconds
#
# Revision: 8
# Processed by: cddbd v1.5.2PL0 Copyright (c) Steve Scherf et al.
# Submitted via: CDex 1.70beta2
#
DISCID=330dc014
DTITLE=Paddy O'Connor - Irish folk songs Vol.1
DYEAR=1999
DGENRE=Irish Folk
TTITLE0=White, Orange and Green
TTITLE1=Macushla
TTITLE2=Three Young Ladies Drinking Whiskey Before Breakfast
TTITLE3=Rambling Irishman
TTITLE4=Galway Bay
TTITLE5=Close of the Day
TTITLE6=The Wild Rover
TTITLE7=Suil A Ruin
TTITLE8=I'm Champion At Keepin' Them Rollin'
TTITLE9=The Night Visiting Song
TTITLE10=Maggie
TTITLE11=Robert Emmet Waltz
TTITLE12=The Beggarman
TTITLE13=Spinning Wheel
TTITLE14=Songs of the South
TTITLE15=When Irish Eyes Are Smiling
TTITLE16=Turtle Dove
TTITLE17=The Wearing of the Green
TTITLE18=Molly Malone
TTITLE19=The Rose of Tralee
EXTD=YEAR: 1999
EXTT0=
EXTT1=
EXTT2=
EXTT3=
EXTT4=
EXTT5=
EXTT6=
EXTT7=
EXTT8=
EXTT9=
EXTT10=
EXTT11=
EXTT12=
EXTT13=
EXTT14=
EXTT15=
EXTT16=
EXTT17=
EXTT18=
EXTT19=
PLAYORDER=
